<?xml version="1.0" standalone="no"?>
<!DOCTYPE svg PUBLIC "-//W3C//DTD SVG 20010904//EN"
 "http://www.w3.org/TR/2001/REC-SVG-20010904/DTD/svg10.dtd">
<svg version="1.0" xmlns="http://www.w3.org/2000/svg"
 width="829.000000pt" height="829.000000pt" viewBox="0 0 829.000000 829.000000"
 preserveAspectRatio="xMidYMid meet">
<metadata>
Created by potrace 1.14, written by Peter Selinger 2001-2017
</metadata>
<g transform="translate(0.000000,829.000000) scale(0.100000,-0.100000)"
fill="#000000" stroke="none">
<path d="M4579 8267 c-45 -38 -106 -87 -332 -269 l-219 -176 -306 184 c-168
101 -307 183 -309 181 -2 -2 15 -51 38 -108 74 -188 170 -433 194 -496 24 -62
24 -63 4 -76 -11 -8 -36 -29 -57 -48 -20 -19 -102 -90 -182 -159 -80 -68 -147
-127 -150 -130 -3 -3 -40 -36 -84 -73 l-78 -68 93 5 c52 3 139 8 194 11 55 3
134 7 175 10 41 3 123 7 181 10 l105 6 13 -28 c7 -15 46 -109 88 -208 41 -99
85 -203 98 -232 13 -28 39 -88 57 -134 l32 -82 17 64 c41 160 98 372 135 507
9 31 18 67 20 79 12 64 21 73 71 74 27 0 56 2 65 4 9 2 63 6 120 10 57 4 114
8 128 10 14 1 73 6 132 10 59 3 115 8 125 10 10 2 38 4 63 4 l45 1 -25 20
c-14 10 -36 25 -50 32 -14 7 -27 16 -30 19 -3 3 -59 41 -125 83 -382 249 -384
250 -380 271 3 11 28 117 55 235 28 118 57 244 66 280 8 36 21 91 30 123 9 33
14 60 12 62 -2 2 -15 -6 -29 -18z"/>
<path d="M2536 7328 c-54 -106 -140 -275 -192 -374 -51 -100 -91 -183 -89
-185 1 -2 6 -35 10 -74 11 -111 22 -212 30 -275 2 -19 7 -60 10 -90 7 -69 15
-138 20 -167 2 -12 7 -58 11 -102 3 -44 13 -88 21 -98 8 -10 46 -63 84 -118
67 -95 130 -185 200 -285 17 -25 50 -71 72 -103 l40 -57 -54 -62 c-30 -35
-119 -138 -199 -229 -130 -149 -150 -177 -189 -265 -25 -55 -61 -133 -80 -174
-19 -41 -53 -131 -76 -200 l-41 -125 -156 -93 -156 -93 0 -377 c0 -207 3 -395
8 -417 5 -22 12 -60 15 -85 4 -24 8 -47 10 -50 2 -3 6 -21 9 -40 3 -19 8 -46
11 -60 6 -30 19 -100 45 -235 91 -484 84 -456 180 -700 50 -126 131 -333 181
-459 104 -265 100 -257 159 -326 25 -28 55 -64 68 -79 12 -14 142 -168 289
-341 l267 -315 246 -181 c135 -100 341 -252 458 -338 129 -96 217 -154 224
-150 27 17 875 646 899 666 14 13 115 129 224 258 110 129 233 275 275 324 41
49 82 97 90 105 62 68 102 127 130 196 17 44 36 89 40 100 5 11 44 109 86 217
43 108 82 194 88 191 5 -3 6 -1 2 6 -9 14 22 101 36 101 5 0 6 5 3 10 -4 6 -1
17 5 25 7 8 9 15 6 15 -4 0 -2 9 4 20 6 12 16 18 23 14 9 -5 9 -4 1 5 -9 10
-8 20 3 42 15 30 16 30 37 12 16 -14 15 -11 -4 11 -18 22 -21 28 -8 23 10 -3
20 -1 24 5 4 6 3 8 -4 4 -6 -3 -13 -2 -17 4 -3 5 1 10 9 10 8 0 18 4 21 10 3
6 -1 7 -9 4 -19 -7 -20 0 -6 27 8 14 18 18 37 15 14 -3 22 -2 18 2 -3 4 -11 8
-16 8 -5 1 -13 2 -17 3 -5 0 -9 8 -9 16 0 9 6 14 14 11 10 -4 10 -1 1 13 -12
20 -4 56 11 46 5 -3 13 0 17 6 4 8 3 9 -5 5 -6 -4 -14 0 -18 10 -4 10 -2 19 4
21 5 2 8 15 5 30 -4 20 -2 24 9 18 11 -7 12 -6 2 7 -7 8 -10 17 -7 20 2 3 7
18 10 34 14 84 67 362 99 524 l37 185 2 386 3 387 -159 92 c-87 51 -158 95
-158 99 0 3 -15 89 -34 191 l-34 185 -101 185 -102 185 -2 118 -1 117 -63 60
c-42 39 -61 64 -56 73 6 9 296 365 349 427 13 16 18 35 29 125 3 28 8 61 10
75 2 14 11 81 20 150 16 131 24 188 30 230 2 14 6 48 10 75 3 28 7 64 9 80 3
22 -17 84 -65 200 -38 94 -86 211 -106 260 -20 50 -40 94 -44 100 -5 5 -9 14
-9 21 0 6 -12 38 -27 70 -14 33 -27 64 -28 69 -2 6 -16 39 -32 75 l-30 65 -1
-373 0 -373 -230 -347 -229 -347 -247 -142 -247 -142 -187 59 c-152 48 -196
59 -237 55 -27 -2 -95 -7 -150 -10 -55 -4 -116 -8 -135 -10 -19 -2 -80 -6
-135 -9 -158 -10 -239 -17 -247 -22 -4 -2 -22 4 -40 14 -147 82 -229 122 -239
116 -7 -4 -9 -3 -5 4 4 6 -8 18 -30 28 -19 9 -44 29 -55 43 -29 40 -187 270
-295 431 -54 80 -115 168 -136 196 -21 28 -38 54 -38 58 0 5 -11 22 -26 38
-27 33 -27 48 -9 313 5 68 9 146 20 353 3 56 4 102 2 102 -1 0 -47 -87 -101
-192z"/>
<path d="M5996 2572 c-3 -5 1 -9 9 -9 8 0 12 4 9 9 -3 4 -7 8 -9 8 -2 0 -6 -4
-9 -8z"/>
<path d="M5970 2501 c0 -6 4 -13 10 -16 6 -3 7 1 4 9 -7 18 -14 21 -14 7z"/>
</g>
</svg>
